<svg xmlns="http://www.w3.org/2000/svg" xmlns:xlink="http://www.w3.org/1999/xlink" width="125" height="50" preserveAspectRatio="xMidYMid meet" version="1.0" viewBox="0 0 93.75 37.5" zoomAndPan="magnify"><defs><clipPath id="30e9f746a8"><path d="M 0.492188 2 L 17 2 L 17 18.550781 L 0.492188 18.550781 Z M 0.492188 2" clip-rule="nonzero"/></clipPath><clipPath id="b8664f3a25"><path d="M 1 1 L 17.5625 1 L 17.5625 18 L 1 18 Z M 1 1" clip-rule="nonzero"/></clipPath><clipPath id="321cb41a7e"><path d="M 6.203125 5.519531 L 46.875 5.519531 L 46.875 31.585938 L 6.203125 31.585938 Z M 6.203125 5.519531" clip-rule="nonzero"/></clipPath><clipPath id="0ab3c664cf"><path d="M 46.875 5.519531 L 87.546875 5.519531 L 87.546875 31.585938 L 46.875 31.585938 Z M 46.875 5.519531" clip-rule="nonzero"/></clipPath><clipPath id="092140395c"><path d="M 77 18.878906 L 93.011719 18.878906 L 93.011719 35 L 77 35 Z M 77 18.878906" clip-rule="nonzero"/></clipPath><clipPath id="35e2f89707"><path d="M 76.328125 19 L 93 19 L 93 36 L 76.328125 36 Z M 76.328125 19" clip-rule="nonzero"/></clipPath><clipPath id="290681fe80"><path d="M 83 29 L 92 29 L 92 37.007812 L 83 37.007812 Z M 83 29" clip-rule="nonzero"/></clipPath></defs><g clip-path="url(#30e9f746a8)"><path fill="#000" fill-opacity="1" fill-rule="nonzero" d="M 0.769531 18.542969 L 0.492188 18.542969 L 0.492188 2.425781 L 16.457031 2.425781 L 16.457031 2.703125 L 0.769531 2.703125 L 0.769531 18.542969"/></g><g clip-path="url(#b8664f3a25)"><path fill="#000" fill-opacity="1" fill-rule="nonzero" d="M 1.875 17.429688 L 1.597656 17.429688 L 1.597656 1.3125 L 17.5625 1.3125 L 17.5625 1.589844 L 1.875 1.589844 L 1.875 17.429688"/></g><path fill="#000" fill-opacity="1" fill-rule="nonzero" d="M 2.976562 7.347656 L 2.703125 7.347656 L 2.703125 0.0117188 L 9.972656 0.0117188 L 9.972656 0.289062 L 2.976562 0.289062 L 2.976562 7.347656"/><g clip-path="url(#321cb41a7e)"><path fill="#000" fill-opacity="1" fill-rule="nonzero" d="M 6.203125 5.519531 L 46.847656 5.519531 L 46.847656 31.539062 L 6.203125 31.539062 Z M 6.203125 5.519531"/></g><g clip-path="url(#0ab3c664cf)"><path fill="#fff" fill-opacity="1" fill-rule="nonzero" d="M 46.875 5.519531 L 87.519531 5.519531 L 87.519531 31.539062 L 46.875 31.539062 Z M 46.875 5.519531"/></g><g fill="#fff" fill-opacity="1"><g><g><path d="M 2.949219 0 L 3.90625 0 L 3.90625 -6.703125 L 6.472656 -6.703125 L 6.472656 -7.617188 L 0.371094 -7.617188 L 0.371094 -6.703125 L 2.949219 -6.703125 Z M 2.949219 0" transform="translate(7.569018, 22.263157)"/></g></g></g><g fill="#fff" fill-opacity="1"><g><g><path d="M 6.101562 0 L 7.0625 0 L 7.0625 -7.617188 L 6.101562 -7.617188 L 6.101562 -4.339844 L 2.066406 -4.339844 L 2.066406 -7.617188 L 1.109375 -7.617188 L 1.109375 0 L 2.066406 0 L 2.066406 -3.425781 L 6.101562 -3.425781 Z M 6.101562 0" transform="translate(15.248429, 22.263157)"/></g></g></g><g fill="#fff" fill-opacity="1"><g><g><path d="M 1.109375 0 L 2.066406 0 L 2.066406 -7.617188 L 1.109375 -7.617188 Z M 1.109375 0" transform="translate(24.243895, 22.263157)"/></g></g></g><g fill="#fff" fill-opacity="1"><g><g><path d="M 1.109375 0 L 2.054688 0 L 2.054688 -5.960938 L 6.265625 0 L 7.160156 0 L 7.160156 -7.617188 L 6.222656 -7.617188 L 6.222656 -1.652344 L 2.011719 -7.617188 L 1.109375 -7.617188 Z M 1.109375 0" transform="translate(28.247046, 22.263157)"/></g></g></g><g fill="#fff" fill-opacity="1"><g><g><path d="M 6.101562 0 L 7.0625 0 L 7.0625 -7.617188 L 6.101562 -7.617188 L 6.101562 -4.339844 L 2.066406 -4.339844 L 2.066406 -7.617188 L 1.109375 -7.617188 L 1.109375 0 L 2.066406 0 L 2.066406 -3.425781 L 6.101562 -3.425781 Z M 6.101562 0" transform="translate(37.340404, 22.263157)"/></g></g></g><g fill="#000" fill-opacity="1"><g><g><path d="M 6.101562 0 L 7.0625 0 L 7.0625 -7.617188 L 6.101562 -7.617188 L 6.101562 -4.339844 L 2.066406 -4.339844 L 2.066406 -7.617188 L 1.109375 -7.617188 L 1.109375 0 L 2.066406 0 L 2.066406 -3.425781 L 6.101562 -3.425781 Z M 6.101562 0" transform="translate(59.363236, 22.263157)"/></g></g></g><g fill="#000" fill-opacity="1"><g><g><path d="M 0.183594 0 L 1.207031 0 L 1.902344 -1.730469 L 5.613281 -1.730469 L 6.332031 0 L 7.34375 0 L 4.210938 -7.617188 L 3.316406 -7.617188 Z M 2.273438 -2.621094 L 3.765625 -6.277344 L 5.253906 -2.621094 Z M 2.273438 -2.621094" transform="translate(67.531501, 22.263157)"/></g></g></g><g clip-path="url(#092140395c)"><path fill="#000" fill-opacity="1" fill-rule="nonzero" d="M 92.980469 18.5625 L 93.257812 18.5625 L 93.257812 34.679688 L 77.292969 34.679688 L 77.292969 34.402344 L 92.980469 34.402344 L 92.980469 18.5625"/></g><g clip-path="url(#35e2f89707)"><path fill="#000" fill-opacity="1" fill-rule="nonzero" d="M 91.875 19.675781 L 92.152344 19.675781 L 92.152344 35.792969 L 76.1875 35.792969 L 76.1875 35.515625 L 91.875 35.515625 L 91.875 19.675781"/></g><g clip-path="url(#290681fe80)"><path fill="#000" fill-opacity="1" fill-rule="nonzero" d="M 90.773438 29.757812 L 91.046875 29.757812 L 91.046875 37.09375 L 83.777344 37.09375 L 83.777344 36.816406 L 90.773438 36.816406 L 90.773438 29.757812"/></g></svg>